<?xml version="1.0" encoding="UTF-8" standalone="no"?>
<svg
   width="130"
   height="26"
   viewBox="0 0 130 26"
   fill="none"
   version="1.1"
   id="svg1"
   xmlns="http://www.w3.org/2000/svg"
   xmlns:svg="http://www.w3.org/2000/svg">
  <defs
     id="defs1" />
  <path
     fill-rule="evenodd"
     clip-rule="evenodd"
     d="m 63.984569,21.007804 c -0.8213,0 -1.6426,-0.0653 -2.464,-0.196 -0.8213,-0.112 -1.5959,-0.2893 -2.3239,-0.532 -0.7281,-0.2613 -1.3814,-0.5787 -1.96,-0.952 -0.336,-0.224 -0.5694,-0.4947 -0.7,-0.812 -0.1307,-0.3173 -0.1774,-0.6253 -0.14,-0.924 0.056,-0.3173 0.1773,-0.588 0.3639,-0.812 0.2054,-0.2427 0.4574,-0.392 0.7561,-0.448 0.2986,-0.056 0.6253,0.028 0.9799,0.252 0.8214,0.4853 1.6894,0.84 2.604,1.064 0.9147,0.224 1.876,0.336 2.884,0.336 1.4747,0 2.5481,-0.2427 3.22,-0.728 0.672,-0.504 1.0081,-1.148 1.0081,-1.932 0,-0.6533 -0.2427,-1.1667 -0.7281,-1.54 -0.4666,-0.3733 -1.2786,-0.6813 -2.4359,-0.924 l -3.0801,-0.644 c -1.7733,-0.3733 -3.0986,-0.9987 -3.976,-1.876 -0.8586,-0.896 -1.288,-2.072 -1.288,-3.528 0,-0.91467 0.1867,-1.74533 0.5601,-2.492 0.3733,-0.74667 0.8959,-1.39067 1.5679,-1.932 0.6907,-0.54133 1.5027,-0.952 2.436,-1.232001 0.952,-0.29866601 1.9974,-0.44799901 3.136,-0.44799901 1.12,0 2.184,0.14 3.192,0.42000001 1.0081,0.279999 1.9134,0.69067 2.7161,1.232 0.2986,0.20533 0.4946,0.45733 0.5879,0.756 0.112,0.29867 0.14,0.59733 0.084,0.896 -0.056,0.28 -0.1866,0.52267 -0.3919,0.728 -0.2054,0.20533 -0.4667,0.32667 -0.7841,0.364 -0.2986,0.03733 -0.644,-0.056 -1.0359,-0.28 -0.6907,-0.392 -1.3907,-0.672 -2.1,-0.84 -0.7094,-0.168 -1.4747,-0.252 -2.2961,-0.252 -0.8586,0 -1.5959,0.12133 -2.212,0.364 -0.616,0.24267 -1.092,0.588 -1.4279,1.036 -0.3174,0.42933 -0.4761,0.94267 -0.4761,1.54 0,0.672 0.224,1.21333 0.6721,1.624 0.448,0.392 1.2133,0.7 2.2959,0.924 l 3.052,0.644 c 1.848,0.392 3.2201,1.008 4.1161,1.848 0.9146,0.84 1.372,1.96 1.372,3.36 0,0.896 -0.1867,1.708 -0.5601,2.436 -0.3546,0.728 -0.8773,1.3533 -1.568,1.876 -0.672,0.5227 -1.4839,0.924 -2.436,1.204 -0.952,0.28 -2.0253,0.42 -3.22,0.42 z m -26.4171,0 c -1.5493,0 -2.716,-0.4387 -3.5,-1.316 -0.784,-0.896 -1.176,-2.2027 -1.176,-3.92 v -13.244 c 0,-0.57867 0.1494,-1.017334 0.448,-1.316 0.2987,-0.29866701 0.728,-0.44800071 1.288,-0.44800071 0.56,0 0.9894,0.1493337 1.288,0.44800071 0.3174,0.298666 0.476,0.73733 0.476,1.316 v 13.076 c 0,0.8587 0.1774,1.4933 0.532,1.904 0.3734,0.4107 0.896,0.616 1.568,0.616 h 0.42 l 0.392,-0.056 c 0.2614,-0.0373 0.4387,0.0373 0.532,0.224 0.0934,0.168 0.14,0.5227 0.14,1.064 0,0.4667 -0.0933,0.8307 -0.28,1.092 -0.1866,0.2613 -0.4946,0.42 -0.924,0.476 -0.1866,0.0187 -0.3826,0.0373 -0.588,0.056 -0.2053,0.0187 -0.4106,0.028 -0.616,0.028 z m -29.6475997,-0.532 c 0.31733,0.3173 0.76533,0.476 1.344,0.476 0.59733,0 1.0453297,-0.1587 1.3439997,-0.476 0.2987,-0.336 0.448,-0.7933 0.448,-1.372 v -15.12 h 5.46 c 0.4853,0 0.8587,-0.13067 1.12,-0.392 0.28,-0.28 0.42,-0.65333 0.42,-1.12 0,-0.48533 -0.14,-0.849334 -0.42,-1.092001 -0.2613,-0.261333 -0.6347,-0.39200001 -1.12,-0.39200001 H 2.0118693 c -0.48533,0 -0.868,0.13066701 -1.14799997,0.39200001 -0.261333,0.242667 -0.392,0.606671 -0.392,1.092001 0,0.46667 0.130667,0.84 0.392,1.12 0.27999997,0.26133 0.66266997,0.392 1.14799997,0.392 h 5.46 v 15.12 c 0,0.5787 0.14933,1.036 0.448,1.372 z m 11.5070997,-0.028 c 0.784,0.3733 1.6707,0.56 2.66,0.56 0.7467,0 1.4094,-0.1307 1.988,-0.392 0.5787,-0.2613 1.0547,-0.6253 1.428,-1.092 0.2327,-0.2881 0.4194,-0.6059 0.56,-0.9532 v 0.5892 c 0,0.5787 0.14,1.0267 0.42,1.344 0.2987,0.2987 0.7094,0.448 1.232,0.448 0.5227,0 0.924,-0.1493 1.204,-0.448 0.28,-0.3173 0.42,-0.7653 0.42,-1.344 v -6.72 c 0,-1.3067 -0.2146,-2.37067 -0.644,-3.192 -0.4293,-0.84 -1.0826,-1.46533 -1.96,-1.876 -0.8586,-0.41067 -1.96,-0.616 -3.304,-0.616 -0.6533,0 -1.3813,0.07467 -2.184,0.224 -0.784,0.14933 -1.6053,0.40133 -2.464,0.756 -0.3546,0.13067 -0.6066,0.336 -0.756,0.616 -0.1493,0.26133 -0.224,0.532 -0.224,0.812 0,0.28 0.0747,0.54133 0.224,0.784 0.1494,0.224 0.3547,0.37333 0.616,0.448 0.28,0.07467 0.5974,0.028 0.952,-0.14 0.6907,-0.31733 1.344,-0.54133 1.96,-0.672 0.6347,-0.13067 1.2227,-0.196 1.764,-0.196 0.9707,0 1.6614,0.20533 2.072,0.616 0.4107,0.41067 0.616,1.0827 0.616,2.016 v 0.588 h -0.98 c -1.9786,0 -3.556,0.1307 -4.732,0.392 -1.176,0.2613 -2.0253,0.6907 -2.548,1.288 -0.5226,0.5787 -0.784,1.372 -0.784,2.38 0,0.8213 0.2147,1.5587 0.644,2.212 0.448,0.6533 1.0547,1.176 1.82,1.568 z m 6.58,-5.824 v 0.616 c 0,0.6533 -0.14,1.232 -0.42,1.736 -0.28,0.504 -0.6626,0.9053 -1.148,1.204 -0.4666,0.28 -1.008,0.42 -1.624,0.42 -0.7653,0 -1.3626,-0.196 -1.792,-0.588 -0.4293,-0.392 -0.644,-0.896 -0.644,-1.512 0,-0.4853 0.14,-0.8587 0.42,-1.12 0.2987,-0.28 0.7934,-0.476 1.484,-0.588 0.6907,-0.112 1.6147,-0.168 2.772,-0.168 z m 16.2739,5.88 c 0.2987,0.2987 0.728,0.448 1.288,0.448 1.176,0 1.764,-0.5973 1.764,-1.792 v -4.536 h 0.056 l 4.872,5.096 c 0.3734,0.4107 0.7094,0.7187 1.008,0.924 0.3174,0.2053 0.7374,0.308 1.26,0.308 0.4294,0 0.784,-0.112 1.064,-0.336 0.28,-0.2427 0.4294,-0.5413 0.448,-0.896 0.0374,-0.3733 -0.112,-0.7373 -0.448,-1.092 l -4.6663,-5.0328 4.1903,-4.4312 c 0.336,-0.35467 0.504,-0.70933 0.504,-1.064 0,-0.35467 -0.1306,-0.65333 -0.392,-0.896 -0.2426,-0.26133 -0.6066,-0.392 -1.092,-0.392 -0.4853,0 -0.868,0.10267 -1.148,0.308 -0.28,0.20533 -0.6066,0.49467 -0.98,0.868 l -4.62,4.872 h -0.056 v -10.332 c 0,-0.57867 -0.1586,-1.017334 -0.476,-1.316 -0.2986,-0.29866701 -0.728,-0.44800071 -1.288,-0.44800071 -0.56,0 -0.9893,0.1493337 -1.288,0.44800071 -0.2986,0.298666 -0.448,0.73733 -0.448,1.316 v 16.632 c 0,0.5787 0.1494,1.0267 0.448,1.344 z m 32.6758,5.04 c 0.2987,0.2987 0.728,0.448 1.288,0.448 0.56,0 0.9893,-0.1493 1.288,-0.448 0.3174,-0.2987 0.476,-0.7373 0.476,-1.316 v -5.5369 c 0.3271,0.5761 0.7938,1.0683 1.4,1.4769 0.8587,0.56 1.8574,0.84 2.996,0.84 1.2133,0 2.268,-0.2893 3.164,-0.868 0.896,-0.5787 1.596,-1.4 2.1,-2.464 0.504,-1.0827 0.756,-2.352 0.756,-3.808 0,-1.4747 -0.252,-2.7347 -0.756,-3.78 -0.504,-1.064 -1.2133,-1.88533 -2.128,-2.464 -0.896,-0.57867 -1.9413,-0.868 -3.136,-0.868 -1.1573,0 -2.1747,0.28933 -3.052,0.868 -0.6152,0.41457 -1.0818,0.92496 -1.4,1.53115 v -0.57915 c 0,-0.57867 -0.1493,-1.01733 -0.448,-1.316 -0.2987,-0.29867 -0.728,-0.448 -1.288,-0.448 -0.5413,0 -0.9613,0.14933 -1.26,0.448 -0.2987,0.29867 -0.448,0.73733 -0.448,1.316 v 15.652 c 0,0.5787 0.1493,1.0173 0.448,1.316 z m 20.8491,-4.536 c -0.9894,0 -1.876,-0.1867 -2.66,-0.56 -0.7654,-0.392 -1.372,-0.9147 -1.82,-1.568 -0.4294,-0.6533 -0.644,-1.3907 -0.644,-2.212 0,-1.008 0.2613,-1.8013 0.784,-2.38 0.5226,-0.5973 1.372,-1.0267 2.548,-1.288 1.176,-0.2613 2.7533,-0.392 4.732,-0.392 h 0.98 v -0.588 c 0,-0.9333 -0.2054,-1.60533 -0.616,-2.016 -0.4107,-0.41067 -1.1014,-0.616 -2.072,-0.616 -0.5414,0 -1.1294,0.06533 -1.764,0.196 -0.616,0.13067 -1.2694,0.35467 -1.96,0.672 -0.3547,0.168 -0.672,0.21467 -0.952,0.14 -0.2614,-0.07467 -0.4667,-0.224 -0.616,-0.448 -0.1494,-0.24267 -0.224,-0.504 -0.224,-0.784 0,-0.28 0.0746,-0.55067 0.224,-0.812 0.1493,-0.28 0.4013,-0.48533 0.756,-0.616 0.8586,-0.35467 1.68,-0.60667 2.464,-0.756 0.8026,-0.14933 1.5306,-0.224 2.184,-0.224 1.344,0 2.4453,0.20533 3.304001,0.616 0.8771,0.41067 1.5311,1.036 1.9601,1.876 0.429,0.82133 0.644,1.8853 0.644,3.192 v 6.72 c 0,0.5787 -0.14,1.0267 -0.42,1.344 -0.28,0.2987 -0.681,0.448 -1.204,0.448 -0.523,0 -0.933,-0.1493 -1.2321,-0.448 -0.280001,-0.3173 -0.420001,-0.7653 -0.420001,-1.344 v -0.5892 c -0.1406,0.3473 -0.3273,0.6651 -0.56,0.9532 -0.3734,0.4667 -0.8494,0.8307 -1.428,1.092 -0.5787,0.2613 -1.2414,0.392 -1.988,0.392 z m 3.92,-5.768 v -0.616 h -0.952 c -1.1574,0 -2.0814,0.056 -2.772,0.168 -0.6907,0.112 -1.1854,0.308 -1.484,0.588 -0.28,0.2613 -0.42,0.6347 -0.42,1.12 0,0.616 0.2146,1.12 0.644,1.512 0.4293,0.392 1.0266,0.588 1.792,0.588 0.616,0 1.1573,-0.14 1.624,-0.42 0.4853,-0.2987 0.868,-0.7 1.148,-1.204 0.28,-0.504 0.42,-1.0827 0.42,-1.736 z m 7.332101,5.264 c 0.318,0.2987 0.766,0.448 1.344,0.448 0.579,0 1.018,-0.1493 1.316,-0.448 0.299,-0.3173 0.448,-0.7653 0.448,-1.344 v -5.796 c 0,-1.064 0.29,-1.8853 0.868,-2.464 0.579,-0.59733 1.438,-0.952 2.576,-1.064 l 0.616,-0.056 c 0.504,-0.056 0.878,-0.224 1.12,-0.504 0.262,-0.29867 0.374,-0.68133 0.336,-1.148 -0.037,-0.48533 -0.177,-0.84 -0.42,-1.064 -0.224,-0.24267 -0.532,-0.34533 -0.924,-0.308 -1.269,0.112 -2.286,0.45733 -3.052,1.036 -0.55,0.41606 -0.97,0.97205 -1.26,1.66796 v -0.88396 c 0,-0.57867 -0.149,-1.01733 -0.448,-1.316 -0.298,-0.29867 -0.718,-0.448 -1.26,-0.448 -0.541,0 -0.961,0.14933 -1.26,0.448 -0.298,0.29867 -0.448,0.73733 -0.448,1.316 v 10.584 c 0,0.5787 0.15,1.0267 0.448,1.344 z m 12.253,0.448 c -0.56,0 -0.989,-0.1493 -1.288,-0.448 -0.298,-0.3173 -0.448,-0.7653 -0.448,-1.344 v -16.632 c 0,-0.57867 0.15,-1.017334 0.448,-1.316 0.299,-0.29866701 0.728,-0.44800071 1.288,-0.44800071 0.56,0 0.99,0.1493337 1.288,0.44800071 0.318,0.298666 0.476,0.73733 0.476,1.316 v 10.332 h 0.056 l 4.62,-4.872 c 0.374,-0.37333 0.7,-0.66267 0.98,-0.868 0.28,-0.20533 0.663,-0.308 1.148,-0.308 0.486,0 0.85,0.13067 1.092,0.392 0.262,0.24267 0.392,0.54133 0.392,0.896 0,0.35467 -0.168,0.70933 -0.504,1.064 l -4.19,4.4312 4.666,5.0328 c 0.336,0.3547 0.486,0.7187 0.448,1.092 -0.018,0.3547 -0.168,0.6533 -0.448,0.896 -0.28,0.224 -0.634,0.336 -1.064,0.336 -0.522,0 -0.942,-0.1027 -1.26,-0.308 -0.298,-0.2053 -0.634,-0.5133 -1.008,-0.924 l -4.872,-5.096 h -0.056 v 4.536 c 0,1.1947 -0.588,1.792 -1.764,1.792 z M 81.713369,8.295034 c 0.9369,-0.20727 3.5272,0.42685 2.8603,3.08407 0,0 -0.1188,0.3755 -0.398,1.1192 -0.1374,0.4659 0.0953,1.2462 0.7213,1.2187 1.0411,-0.0457 0.4769,-1.6437 0.3827,-1.7595 0.0054,0.0017 0.0126,0.0037 0.0216,0.0062 0.2231,0.0621 1.5208,0.4234 1.3864,3.2456 -0.1492,3.1338 -3.0252,4.0725 -4.1038,4.1286 l -0.0184,0.0011 c -0.3876,0.0218 -3.6873,0.2077 -3.9191,-3.3064 0,0 -0.1066,-1.9425 1.326,-3.0369 1.4326,-1.0943 1.8904,-1.9146 2.0644,-2.28814 0.2337,-0.49413 0.4924,-1.37788 -0.3234,-2.41253 z m 3.5663,3.66247 c -0.0093,-0.0029 -0.0128,-0.0048 -0.0096,-0.0064 9e-4,-5e-4 0.0022,-3e-4 0.0036,6e-4 0.0017,0.001 0.0037,0.003 0.006,0.0058 z m -5.6464,-2.3861 -0.0092,-0.01794 c 10e-4,0.00344 0.0025,0.00696 0.0045,0.01059 0.0014,0.0024 0.0029,0.00485 0.0047,0.00735 z m 0,0 c 0.1157,0.23134 0.2469,0.73778 -0.0941,1.05337 -0.3502,0.32403 0.0544,0.75123 0.2221,0.81653 0.148,0.0392 0.307,0.145 0.3854,0.5161 0.0072,-0.0278 0.0138,-0.0605 0.0211,-0.0969 0.0391,-0.1947 0.0995,-0.495 0.3904,-0.7131 0.2613,-0.196 0.3266,-0.65981 -0.0588,-0.96683 -0.1527,-0.17881 -0.4057,-0.32193 -0.6008,-0.43227 -0.1291,-0.07306 -0.2329,-0.13175 -0.2653,-0.1769 z"
     fill="#ffffff"
     id="path1" />
</svg>
