<svg width="130" height="26" viewBox="0 0 130 26" fill="none" xmlns="http://www.w3.org/2000/svg">
<ellipse cx="82" cy="13" rx="5" ry="6" fill="url(#paint0_linear_209_12994)"/>
<path fill-rule="evenodd" clip-rule="evenodd" d="M63.5127 20.3C62.6914 20.3 61.8701 20.2347 61.0487 20.104C60.2274 19.992 59.4528 19.8147 58.7248 19.572C57.9967 19.3107 57.3434 18.9933 56.7648 18.62C56.4288 18.396 56.1954 18.1253 56.0648 17.808C55.9341 17.4907 55.8874 17.1827 55.9248 16.884C55.9808 16.5667 56.1021 16.296 56.2887 16.072C56.4941 15.8293 56.7461 15.68 57.0448 15.624C57.3434 15.568 57.6701 15.652 58.0247 15.876C58.8461 16.3613 59.7141 16.716 60.6287 16.94C61.5434 17.164 62.5047 17.276 63.5127 17.276C64.9874 17.276 66.0608 17.0333 66.7327 16.548C67.4047 16.044 67.7408 15.4 67.7408 14.616C67.7408 13.9627 67.4981 13.4493 67.0127 13.076C66.5461 12.7027 65.7341 12.3947 64.5768 12.152L61.4967 11.508C59.7234 11.1347 58.3981 10.5093 57.5207 9.632C56.6621 8.736 56.2327 7.56 56.2327 6.104C56.2327 5.18933 56.4194 4.35867 56.7928 3.612C57.1661 2.86533 57.6887 2.22133 58.3607 1.68C59.0514 1.13867 59.8634 0.728 60.7967 0.447999C61.7487 0.149333 62.7941 0 63.9327 0C65.0527 0 66.1167 0.14 67.1247 0.42C68.1328 0.699999 69.0381 1.11067 69.8408 1.652C70.1394 1.85733 70.3354 2.10933 70.4287 2.408C70.5407 2.70667 70.5687 3.00533 70.5127 3.304C70.4567 3.584 70.3261 3.82667 70.1208 4.032C69.9154 4.23733 69.6541 4.35867 69.3367 4.396C69.0381 4.43333 68.6927 4.34 68.3008 4.116C67.6101 3.724 66.9101 3.444 66.2008 3.276C65.4914 3.108 64.7261 3.024 63.9047 3.024C63.0461 3.024 62.3088 3.14533 61.6927 3.388C61.0767 3.63067 60.6007 3.976 60.2648 4.424C59.9474 4.85333 59.7887 5.36667 59.7887 5.964C59.7887 6.636 60.0127 7.17733 60.4608 7.588C60.9088 7.98 61.6741 8.288 62.7567 8.512L65.8087 9.156C67.6567 9.548 69.0288 10.164 69.9248 11.004C70.8394 11.844 71.2968 12.964 71.2968 14.364C71.2968 15.26 71.1101 16.072 70.7367 16.8C70.3821 17.528 69.8594 18.1533 69.1687 18.676C68.4967 19.1987 67.6848 19.6 66.7327 19.88C65.7807 20.16 64.7074 20.3 63.5127 20.3ZM37.0956 20.3C35.5463 20.3 34.3796 19.8613 33.5956 18.984C32.8116 18.088 32.4196 16.7813 32.4196 15.064V1.82C32.4196 1.24133 32.569 0.802666 32.8676 0.504C33.1663 0.205333 33.5956 0.0559993 34.1556 0.0559993C34.7156 0.0559993 35.145 0.205333 35.4436 0.504C35.761 0.802666 35.9196 1.24133 35.9196 1.82V14.896C35.9196 15.7547 36.097 16.3893 36.4516 16.8C36.825 17.2107 37.3476 17.416 38.0196 17.416H38.4396L38.8316 17.36C39.093 17.3227 39.2703 17.3973 39.3636 17.584C39.457 17.752 39.5036 18.1067 39.5036 18.648C39.5036 19.1147 39.4103 19.4787 39.2236 19.74C39.037 20.0013 38.729 20.16 38.2996 20.216C38.113 20.2347 37.917 20.2533 37.7116 20.272C37.5063 20.2907 37.301 20.3 37.0956 20.3ZM7.448 19.768C7.76533 20.0853 8.21333 20.244 8.792 20.244C9.38933 20.244 9.83733 20.0853 10.136 19.768C10.4347 19.432 10.584 18.9747 10.584 18.396V3.276H16.044C16.5293 3.276 16.9027 3.14533 17.164 2.884C17.444 2.604 17.584 2.23067 17.584 1.764C17.584 1.27867 17.444 0.914666 17.164 0.671999C16.9027 0.410666 16.5293 0.279999 16.044 0.279999H1.54C1.05467 0.279999 0.672 0.410666 0.392 0.671999C0.130667 0.914666 0 1.27867 0 1.764C0 2.23067 0.130667 2.604 0.392 2.884C0.672 3.14533 1.05467 3.276 1.54 3.276H7V18.396C7 18.9747 7.14933 19.432 7.448 19.768ZM18.9551 19.74C19.7391 20.1133 20.6258 20.3 21.6151 20.3C22.3618 20.3 23.0245 20.1693 23.6031 19.908C24.1818 19.6467 24.6578 19.2827 25.0311 18.816C25.2638 18.5279 25.4505 18.2101 25.5911 17.8628V18.452C25.5911 19.0307 25.7311 19.4787 26.0111 19.796C26.3098 20.0947 26.7205 20.244 27.2431 20.244C27.7658 20.244 28.1671 20.0947 28.4471 19.796C28.7271 19.4787 28.8671 19.0307 28.8671 18.452V11.732C28.8671 10.4253 28.6525 9.36133 28.2231 8.54C27.7938 7.7 27.1405 7.07467 26.2631 6.664C25.4045 6.25333 24.3031 6.048 22.9591 6.048C22.3058 6.048 21.5778 6.12267 20.7751 6.272C19.9911 6.42133 19.1698 6.67333 18.3111 7.028C17.9565 7.15867 17.7045 7.364 17.5551 7.644C17.4058 7.90533 17.3311 8.176 17.3311 8.456C17.3311 8.736 17.4058 8.99733 17.5551 9.24C17.7045 9.464 17.9098 9.61333 18.1711 9.688C18.4511 9.76267 18.7685 9.716 19.1231 9.548C19.8138 9.23067 20.4671 9.00667 21.0831 8.876C21.7178 8.74533 22.3058 8.68 22.8471 8.68C23.8178 8.68 24.5085 8.88533 24.9191 9.296C25.3298 9.70667 25.5351 10.3787 25.5351 11.312V11.9H24.5551C22.5765 11.9 20.9991 12.0307 19.8231 12.292C18.6471 12.5533 17.7978 12.9827 17.2751 13.58C16.7525 14.1587 16.4911 14.952 16.4911 15.96C16.4911 16.7813 16.7058 17.5187 17.1351 18.172C17.5831 18.8253 18.1898 19.348 18.9551 19.74ZM25.5351 13.916V14.532C25.5351 15.1853 25.3951 15.764 25.1151 16.268C24.8351 16.772 24.4525 17.1733 23.9671 17.472C23.5005 17.752 22.9591 17.892 22.3431 17.892C21.5778 17.892 20.9805 17.696 20.5511 17.304C20.1218 16.912 19.9071 16.408 19.9071 15.792C19.9071 15.3067 20.0471 14.9333 20.3271 14.672C20.6258 14.392 21.1205 14.196 21.8111 14.084C22.5018 13.972 23.4258 13.916 24.5831 13.916H25.5351ZM41.809 19.796C42.1077 20.0947 42.537 20.244 43.097 20.244C44.273 20.244 44.861 19.6467 44.861 18.452V13.916H44.917L49.789 19.012C50.1624 19.4227 50.4984 19.7307 50.797 19.936C51.1144 20.1413 51.5344 20.244 52.057 20.244C52.4864 20.244 52.841 20.132 53.121 19.908C53.401 19.6653 53.5504 19.3667 53.569 19.012C53.6064 18.6387 53.457 18.2747 53.121 17.92L48.4547 12.8872L52.645 8.456C52.981 8.10133 53.149 7.74667 53.149 7.392C53.149 7.03733 53.0184 6.73867 52.757 6.496C52.5144 6.23467 52.1504 6.104 51.665 6.104C51.1797 6.104 50.797 6.20667 50.517 6.412C50.237 6.61733 49.9104 6.90667 49.537 7.28L44.917 12.152H44.861V1.82C44.861 1.24133 44.7024 0.802666 44.385 0.504C44.0864 0.205333 43.657 0.0559993 43.097 0.0559993C42.537 0.0559993 42.1077 0.205333 41.809 0.504C41.5104 0.802666 41.361 1.24133 41.361 1.82V18.452C41.361 19.0307 41.5104 19.4787 41.809 19.796ZM74.4848 24.836C74.7835 25.1347 75.2128 25.284 75.7728 25.284C76.3328 25.284 76.7621 25.1347 77.0608 24.836C77.3782 24.5373 77.5368 24.0987 77.5368 23.52V17.9831C77.8639 18.5592 78.3306 19.0514 78.9368 19.46C79.7955 20.02 80.7942 20.3 81.9328 20.3C83.1461 20.3 84.2008 20.0107 85.0968 19.432C85.9928 18.8533 86.6928 18.032 87.1968 16.968C87.7008 15.8853 87.9528 14.616 87.9528 13.16C87.9528 11.6853 87.7008 10.4253 87.1968 9.38C86.6928 8.316 85.9835 7.49467 85.0688 6.916C84.1728 6.33733 83.1275 6.048 81.9328 6.048C80.7755 6.048 79.7581 6.33733 78.8808 6.916C78.2656 7.33057 77.799 7.84096 77.4808 8.44715V7.868C77.4808 7.28933 77.3315 6.85067 77.0328 6.552C76.7341 6.25333 76.3048 6.104 75.7448 6.104C75.2035 6.104 74.7835 6.25333 74.4848 6.552C74.1861 6.85067 74.0368 7.28933 74.0368 7.868V23.52C74.0368 24.0987 74.1861 24.5373 74.4848 24.836ZM95.3339 20.3C94.3445 20.3 93.4579 20.1133 92.6739 19.74C91.9085 19.348 91.3019 18.8253 90.8539 18.172C90.4245 17.5187 90.2099 16.7813 90.2099 15.96C90.2099 14.952 90.4712 14.1587 90.9939 13.58C91.5165 12.9827 92.3659 12.5533 93.5419 12.292C94.7179 12.0307 96.2952 11.9 98.2739 11.9H99.2539V11.312C99.2539 10.3787 99.0485 9.70667 98.6379 9.296C98.2272 8.88533 97.5365 8.68 96.5659 8.68C96.0245 8.68 95.4365 8.74533 94.8019 8.876C94.1859 9.00667 93.5325 9.23067 92.8419 9.548C92.4872 9.716 92.1699 9.76267 91.8899 9.688C91.6285 9.61333 91.4232 9.464 91.2739 9.24C91.1245 8.99733 91.0499 8.736 91.0499 8.456C91.0499 8.176 91.1245 7.90533 91.2739 7.644C91.4232 7.364 91.6752 7.15867 92.0299 7.028C92.8885 6.67333 93.7099 6.42133 94.4939 6.272C95.2965 6.12267 96.0245 6.048 96.6779 6.048C98.0219 6.048 99.1232 6.25333 99.9819 6.664C100.859 7.07467 101.513 7.7 101.942 8.54C102.371 9.36133 102.586 10.4253 102.586 11.732V18.452C102.586 19.0307 102.446 19.4787 102.166 19.796C101.886 20.0947 101.485 20.244 100.962 20.244C100.439 20.244 100.029 20.0947 99.7299 19.796C99.4499 19.4787 99.3099 19.0307 99.3099 18.452V17.8628C99.1693 18.2101 98.9826 18.5279 98.7499 18.816C98.3765 19.2827 97.9005 19.6467 97.3219 19.908C96.7432 20.1693 96.0805 20.3 95.3339 20.3ZM99.2539 14.532V13.916H98.3019C97.1445 13.916 96.2205 13.972 95.5299 14.084C94.8392 14.196 94.3445 14.392 94.0459 14.672C93.7659 14.9333 93.6259 15.3067 93.6259 15.792C93.6259 16.408 93.8405 16.912 94.2699 17.304C94.6992 17.696 95.2965 17.892 96.0619 17.892C96.6779 17.892 97.2192 17.752 97.6859 17.472C98.1712 17.1733 98.5539 16.772 98.8339 16.268C99.1139 15.764 99.2539 15.1853 99.2539 14.532ZM106.586 19.796C106.904 20.0947 107.352 20.244 107.93 20.244C108.509 20.244 108.948 20.0947 109.246 19.796C109.545 19.4787 109.694 19.0307 109.694 18.452V12.656C109.694 11.592 109.984 10.7707 110.562 10.192C111.141 9.59467 112 9.24 113.138 9.128L113.754 9.072C114.258 9.016 114.632 8.848 114.874 8.568C115.136 8.26933 115.248 7.88667 115.21 7.42C115.173 6.93467 115.033 6.58 114.79 6.356C114.566 6.11333 114.258 6.01067 113.866 6.048C112.597 6.16 111.58 6.50533 110.814 7.084C110.264 7.50006 109.844 8.05605 109.554 8.75196V7.868C109.554 7.28933 109.405 6.85067 109.106 6.552C108.808 6.25333 108.388 6.104 107.846 6.104C107.305 6.104 106.885 6.25333 106.586 6.552C106.288 6.85067 106.138 7.28933 106.138 7.868V18.452C106.138 19.0307 106.288 19.4787 106.586 19.796ZM118.839 20.244C118.279 20.244 117.85 20.0947 117.551 19.796C117.253 19.4787 117.103 19.0307 117.103 18.452V1.82C117.103 1.24133 117.253 0.802666 117.551 0.504C117.85 0.205333 118.279 0.0559993 118.839 0.0559993C119.399 0.0559993 119.829 0.205333 120.127 0.504C120.445 0.802666 120.603 1.24133 120.603 1.82V12.152H120.659L125.279 7.28C125.653 6.90667 125.979 6.61733 126.259 6.412C126.539 6.20667 126.922 6.104 127.407 6.104C127.893 6.104 128.257 6.23467 128.499 6.496C128.761 6.73867 128.891 7.03733 128.891 7.392C128.891 7.74667 128.723 8.10133 128.387 8.456L124.197 12.8872L128.863 17.92C129.199 18.2747 129.349 18.6387 129.311 19.012C129.293 19.3667 129.143 19.6653 128.863 19.908C128.583 20.132 128.229 20.244 127.799 20.244C127.277 20.244 126.857 20.1413 126.539 19.936C126.241 19.7307 125.905 19.4227 125.531 19.012L120.659 13.916H120.603V18.452C120.603 19.6467 120.015 20.244 118.839 20.244ZM81.2415 7.58723C82.1784 7.37996 84.7687 8.01408 84.1018 10.6713C84.1018 10.6713 83.983 11.0468 83.7038 11.7905C83.5664 12.2564 83.7991 13.0367 84.4251 13.0092C85.4662 12.9635 84.902 11.3655 84.8078 11.2497C84.8132 11.2514 84.8204 11.2534 84.8294 11.2559C85.0525 11.318 86.3502 11.6793 86.2158 14.5015C86.0666 17.6353 83.1906 18.574 82.112 18.6301L82.0936 18.6312C81.706 18.653 78.4063 18.8389 78.1745 15.3248C78.1745 15.3248 78.0679 13.3823 79.5005 12.2879C80.9331 11.1936 81.3909 10.3733 81.5649 9.99976C81.7986 9.50563 82.0573 8.62188 81.2415 7.58723ZM84.8078 11.2497C84.7985 11.2468 84.795 11.2449 84.7982 11.2433C84.7991 11.2428 84.8004 11.243 84.8018 11.2439C84.8035 11.2449 84.8055 11.2469 84.8078 11.2497ZM79.1614 8.8636L79.1522 8.84566C79.1532 8.8491 79.1547 8.85262 79.1567 8.85625C79.1581 8.85865 79.1596 8.8611 79.1614 8.8636ZM79.1614 8.8636C79.2771 9.09494 79.4083 9.60138 79.0673 9.91697C78.7171 10.241 79.1217 10.6682 79.2894 10.7335C79.4374 10.7727 79.5964 10.8785 79.6748 11.2496C79.682 11.2218 79.6886 11.1891 79.6959 11.1527C79.735 10.958 79.7954 10.6577 80.0863 10.4396C80.3476 10.2436 80.4129 9.77979 80.0275 9.47277C79.8748 9.29396 79.6218 9.15084 79.4267 9.0405C79.2976 8.96744 79.1938 8.90875 79.1614 8.8636Z" fill="#0D1135"/>
<defs>
<linearGradient id="paint0_linear_209_12994" x1="77" y1="7" x2="88.7851" y2="9.13184" gradientUnits="userSpaceOnUse">
<stop stop-color="#FBC513"/>
<stop offset="1" stop-color="#FF475C"/>
</linearGradient>
</defs>
</svg>
